<svg xmlns="http://www.w3.org/2000/svg" width="512" height="512" viewBox="0 0 512 512">
  <rect width="512" height="512" fill="#0E1B3E" rx="61.44"/>
  <path d="M 256.000 180.736 L 304.978 73.213 L 293.632 190.819 L 293.632 190.819 L 389.809 122.191 L 321.181 218.368 L 321.181 218.368 L 438.787 207.022 L 331.264 256.000 L 331.264 256.000 L 438.787 304.978 L 321.181 293.632 L 321.181 293.632 L 389.809 389.809 L 293.632 321.181 L 293.632 321.181 L 304.978 438.787 L 256.000 331.264 L 256.000 331.264 L 207.022 438.787 L 218.368 321.181 L 218.368 321.181 L 122.191 389.809 L 190.819 293.632 L 190.819 293.632 L 73.213 304.978 L 180.736 256.000 L 180.736 256.000 L 73.213 207.022 L 190.819 218.368 L 190.819 218.368 L 122.191 122.191 L 218.368 190.819 L 218.368 190.819 L 207.022 73.213 L 256.000 180.736 Z" fill="#FFFFFF"/>
  <circle cx="256" cy="256" r="69.24288" fill="#0E1B3E"/>
</svg>